# xmcd
#
# Track frame offsets:
#	150
#	14005
#	26526
#	40767
#	54455
#	71813
#	86867
#	104973
#	119849
#	131086
#
# Disc length: 1988 seconds
#
# Revision: 4
# Processed by: cddbd v1.5.2PL0 Copyright (c) Steve Scherf et al.
# Submitted via: EasyCDDAExtractor 10.0.2.1
#
DISCID=9a07c20a
DTITLE=Lonnie Mack  - Roadhouses And Dance Halls
DYEAR=2001
DGENRE=Blues
TTITLE0=Too Rock For Country, Too Country For Rock And Roll
TTITLE1=50's - 60's Man
TTITLE2=Lucille
TTITLE3=Sexy Ways - Annie Had A Baby
TTITLE4=Plain Jane (In A Mustang)
TTITLE5=Honky Tonk Man
TTITLE6=Riding The Blinds
TTITLE7=High Blood Pressure
TTITLE8=Cocaine Blues
TTITLE9=Hard Life
EXTD=
EXTT0=
EXTT1=
EXTT2=
EXTT3=
EXTT4=
EXTT5=
EXTT6=
EXTT7=
EXTT8=
EXTT9=
PLAYORDER=
